<svg width="32" height="32" viewBox="0 0 32 32" fill="none" xmlns="http://www.w3.org/2000/svg">
<g id="atomo">
<path id="Vector" fill-rule="evenodd" clip-rule="evenodd" d="M12.0759 5.2481C14.3912 3.58397 17.5106 3.58397 19.8259 5.2481L25.1374 9.06575C26.8729 10.3131 27.9018 12.3197 27.9018 14.457V21.3606C27.9018 25.0274 24.9292 28 21.2624 28H10.6394C6.97256 28 4 25.0274 4 21.3606V14.457C4 12.3197 5.02889 10.3131 6.7644 9.06575L12.0759 5.2481ZM10.6394 24.0164C10.6394 21.083 13.0174 18.7049 15.9509 18.7049C18.8843 18.7049 21.2624 21.083 21.2624 24.0164C21.2624 24.7498 20.6679 25.3442 19.9345 25.3442H11.9673C11.2339 25.3442 10.6394 24.7498 10.6394 24.0164Z" fill="white"/>
</g>
</svg>
