<svg width="33" height="32" viewBox="0 0 33 32" fill="none" xmlns="http://www.w3.org/2000/svg">
<g id="atomo">
<path id="Vector" fill-rule="evenodd" clip-rule="evenodd" d="M12.0114 4C12.5108 4 12.9156 4.41537 12.9156 4.92776V5.22892C12.9745 5.21353 13.0336 5.19868 13.093 5.18439C15.5532 4.59221 18.1135 4.59221 20.5736 5.18439C20.6331 5.19868 20.6922 5.21352 20.7511 5.22892V4.92776C20.7511 4.41537 21.1559 4 21.6552 4C22.1546 4 22.5594 4.41537 22.5594 4.92776V5.90535C25.137 7.1831 27.0635 9.59893 27.7339 12.532C28.311 15.0565 28.311 17.6838 27.7339 20.2083C26.9006 23.854 24.1264 26.7007 20.5736 27.5559C18.1135 28.148 15.5532 28.148 13.093 27.5559C9.54023 26.7007 6.76617 23.8542 5.93281 20.2083C5.35573 17.6838 5.35573 15.0565 5.93281 12.532C6.60326 9.59891 8.52977 7.1831 11.1074 5.90535V4.92776C11.1074 4.41537 11.5121 4 12.0114 4ZM15.5365 13.1839C15.8191 12.8941 15.8191 12.4241 15.5365 12.1343C15.2541 11.8444 14.7961 11.8444 14.5137 12.1343L12.6142 14.0835L11.9202 13.3713C11.6377 13.0814 11.1797 13.0814 10.8973 13.3713C10.6148 13.6611 10.6148 14.1311 10.8973 14.4209L12.1028 15.658C12.3852 15.9477 12.8432 15.9477 13.1256 15.658L15.5365 13.1839ZM18.0388 13.7724C17.6393 13.7724 17.3155 14.1047 17.3155 14.5147C17.3155 14.9245 17.6393 15.2568 18.0388 15.2568H22.258C22.6575 15.2568 22.9812 14.9245 22.9812 14.5147C22.9812 14.1047 22.6575 13.7724 22.258 13.7724H18.0388ZM15.5365 19.369C15.8191 19.0791 15.8191 18.6092 15.5365 18.3194C15.2541 18.0295 14.7961 18.0295 14.5137 18.3194L12.6142 20.2686L11.9202 19.5564C11.6377 19.2666 11.1797 19.2666 10.8973 19.5564C10.6148 19.8462 10.6148 20.3162 10.8973 20.606L12.1028 21.843C12.3852 22.1328 12.8432 22.1328 13.1256 21.843L15.5365 19.369ZM18.0388 19.9575C17.6393 19.9575 17.3155 20.2898 17.3155 20.6998C17.3155 21.1096 17.6393 21.4419 18.0388 21.4419H22.258C22.6575 21.4419 22.9812 21.1096 22.9812 20.6998C22.9812 20.2898 22.6575 19.9575 22.258 19.9575H18.0388Z" fill="white"/>
</g>
</svg>
