<svg width="35" height="36" viewBox="0 0 35 36" fill="none" xmlns="http://www.w3.org/2000/svg">
<g id="Vector" filter="url(#filter0_d_717_513)">
<path fill-rule="evenodd" clip-rule="evenodd" d="M9.13931 0C9.76347 0 10.2694 0.519217 10.2694 1.1597V1.53615C10.3431 1.51692 10.4171 1.49835 10.4913 1.48049C13.5665 0.740268 16.7668 0.740268 19.842 1.48049C19.9164 1.49835 19.9902 1.5169 20.0639 1.53615V1.1597C20.0639 0.519217 20.5699 0 21.194 0C21.8182 0 22.3242 0.519217 22.3242 1.1597V2.38169C25.5462 3.97887 27.9544 6.99866 28.7924 10.6649C29.5137 13.8207 29.5137 17.1047 28.7924 20.2604C27.7507 24.8175 24.283 28.3759 19.842 29.4449C16.7668 30.185 13.5665 30.185 10.4913 29.4449C6.05029 28.3759 2.58271 24.8177 1.54101 20.2604C0.819662 17.1047 0.819662 13.8207 1.54101 10.6649C2.37908 6.99864 4.78722 3.97887 8.00919 2.38169V1.1597C8.00919 0.519217 8.51516 0 9.13931 0ZM13.5457 11.4799C13.8988 11.1176 13.8988 10.5302 13.5457 10.1678C13.1927 9.80553 12.6202 9.80553 12.2672 10.1678L9.89274 12.6044L9.02521 11.7142C8.67212 11.3518 8.09967 11.3518 7.7466 11.7142C7.39352 12.0763 7.39352 12.6638 7.7466 13.0262L9.25344 14.5725C9.60652 14.9347 10.179 14.9347 10.532 14.5725L13.5457 11.4799ZM16.6735 12.2155C16.1742 12.2155 15.7693 12.6308 15.7693 13.1434C15.7693 13.6557 16.1742 14.071 16.6735 14.071H21.9475C22.4469 14.071 22.8515 13.6557 22.8515 13.1434C22.8515 12.6308 22.4469 12.2155 21.9475 12.2155H16.6735ZM13.5457 19.2112C13.8988 18.8489 13.8988 18.2615 13.5457 17.8992C13.1927 17.5369 12.6202 17.5369 12.2672 17.8992L9.89274 20.3357L9.02521 19.4455C8.67212 19.0832 8.09967 19.0832 7.7466 19.4455C7.39352 19.8077 7.39352 20.3952 7.7466 20.7575L9.25344 22.3037C9.60652 22.666 10.179 22.666 10.532 22.3037L13.5457 19.2112ZM16.6735 19.9469C16.1742 19.9469 15.7693 20.3622 15.7693 20.8747C15.7693 21.387 16.1742 21.8024 16.6735 21.8024H21.9475C22.4469 21.8024 22.8515 21.387 22.8515 20.8747C22.8515 20.3622 22.4469 19.9469 21.9475 19.9469H16.6735Z" fill="url(#paint0_linear_717_513)"/>
</g>
<defs>
<filter id="filter0_d_717_513" x="0" y="0" width="34.3334" height="36" filterUnits="userSpaceOnUse" color-interpolation-filters="sRGB">
<feFlood flood-opacity="0" result="BackgroundImageFix"/>
<feColorMatrix in="SourceAlpha" type="matrix" values="0 0 0 0 0 0 0 0 0 0 0 0 0 0 0 0 0 0 127 0" result="hardAlpha"/>
<feOffset dx="2" dy="3"/>
<feGaussianBlur stdDeviation="1.5"/>
<feComposite in2="hardAlpha" operator="out"/>
<feColorMatrix type="matrix" values="0 0 0 0 0 0 0 0 0 0 0 0 0 0 0 0 0 0 0.5 0"/>
<feBlend mode="normal" in2="BackgroundImageFix" result="effect1_dropShadow_717_513"/>
<feBlend mode="normal" in="SourceGraphic" in2="effect1_dropShadow_717_513" result="shape"/>
</filter>
<linearGradient id="paint0_linear_717_513" x1="1" y1="15" x2="29.3334" y2="15" gradientUnits="userSpaceOnUse">
<stop stop-color="#FFE259"/>
<stop offset="1" stop-color="#FFA751"/>
</linearGradient>
</defs>
</svg>
